<svg version="1.1" viewBox="0 0 16 16" xmlns="http://www.w3.org/2000/svg">
 <defs>
  <style id="current-color-scheme" type="text/css">
   .ColorScheme-Text { color:#000000; } .ColorScheme-Highlight { color:#00b7eb; } .ColorScheme-NeutralText { color:#ff7800; } .ColorScheme-PositiveText { color:#33d17a; } .ColorScheme-NegativeText { color:#e01b24; }
  </style>
 </defs>
 <g transform="translate(-421.71-531.79)">
  <path class="ColorScheme-Text" transform="translate(421.71 531.79)" d="M5.09375 2.765625A6 6 0 0 0 2 8 6 6 0 0 0 8 14 6 6 0 0 0 14 8 6 6 0 0 0 13.910156 7H12.895A5 5 0 0 1 13 8 5 5 0 0 1 8 13 5 5 0 0 1 3 8 5 5 0 0 1 5.724609 3.554688z" fill="currentColor"/>
  <path class="ColorScheme-Text" d="m427.43 535.34c-1.669.856-2.719 2.574-2.719 4.449 0 2.761 2.239 5 5 5 2.761 0 5-2.239 5-5-.001-.333-.036-.664-.104-.99 0 0-7.181-3.477-7.178-3.459" fill="#9a9996" fill-opacity=".5"/>
 </g>
</svg>
