<svg viewBox="0 0 16 16" xmlns="http://www.w3.org/2000/svg">
 <defs>
  <style id="current-color-scheme" type="text/css">
   .ColorScheme-Text { color:#000000; } .ColorScheme-Highlight { color:#00b7eb; } .ColorScheme-NeutralText { color:#ff7800; } .ColorScheme-PositiveText { color:#33d17a; } .ColorScheme-NegativeText { color:#e01b24; }
  </style>
 </defs>
 <path class="ColorScheme-Text" d="m5 2v2a1 1 0 0 1-1 1h-2v6h2a1 1 0 0 1 1 1v2h6v-2a1 1 0 0 1 1-1h2v-6h-2a1 1 0 0 1-1-1v-2zm1 1h4v1a2 2 0 0 0 2 2h1v4h-1a2 2 0 0 0-2 2v1h-4v-1a2 2 0 0 0-2-2h-1v-4h1a2 2 0 0 0 2-2z" fill="currentColor"/>
</svg>
