<svg viewBox="0 0 16 16" xmlns="http://www.w3.org/2000/svg">
 <defs>
  <style id="current-color-scheme" type="text/css">
   .ColorScheme-Text { color:#000000; } .ColorScheme-Highlight { color:#00b7eb; } .ColorScheme-NeutralText { color:#ff7800; } .ColorScheme-PositiveText { color:#33d17a; } .ColorScheme-NegativeText { color:#e01b24; }
  </style>
 </defs>
 <path class="ColorScheme-Text" d="m2 2v7h1v-2h3v2h1v-2h2v2h1v-2h3v2h1v-7h-12zm1 1h3v3h-3v-3zm4 0h2v3h-2v-3zm3 0h3v3h-3v-3zm0 7 2 4 2-4h-4z" fill="currentColor"/>
 <path class="ColorScheme-Highlight" d="m2 9v1h1.281l-1.281 1.281v1.438l2.719-2.719h2.563l-3 3h-2.281v1h7v-1.719l-0.719 0.719h-2.563l3-3h0.281v-1h-6z" fill="currentColor"/>
</svg>
