<svg viewBox="0 0 16 16" xmlns="http://www.w3.org/2000/svg">
 <defs>
  <style id="current-color-scheme" type="text/css">
   .ColorScheme-Text { color:#000000; } .ColorScheme-Highlight { color:#00b7eb; } .ColorScheme-NeutralText { color:#ff7800; } .ColorScheme-PositiveText { color:#33d17a; } .ColorScheme-NegativeText { color:#e01b24; }
  </style>
 </defs>
 <path class="ColorScheme-Text" d="m2 2v3h1v-2h2v-1h-3zm4 0v1h4v-1h-4zm5 0v1h2v2h1v-3h-3zm-3 2a1.5 1.5 0 0 0-1.5 1.5 1.5 1.5 0 0 0 1.5 1.5 1.5 1.5 0 0 0 1.5-1.5 1.5 1.5 0 0 0-1.5-1.5zm-6 2v4h1v-4h-1zm11 0v4h1v-4h-1zm-5 2a3 3 0 0 0-3 3v1h6v-1a3 3 0 0 0-3-3zm0 1a2 2 0 0 1 2 2h-4a2 2 0 0 1 2-2zm-6 2v3h3v-1h-2v-2h-1zm11 0v2h-2v1h3v-3h-1zm-7 2v1h4v-1h-4z" fill="currentColor"/>
</svg>
