<svg viewBox="0 0 16 16" xmlns="http://www.w3.org/2000/svg">
 <defs>
  <style id="current-color-scheme" type="text/css">
   .ColorScheme-Text { color:#000000; } .ColorScheme-Highlight { color:#00b7eb; } .ColorScheme-NeutralText { color:#ff7800; } .ColorScheme-PositiveText { color:#33d17a; } .ColorScheme-NegativeText { color:#e01b24; }
  </style>
 </defs>
 <path class="ColorScheme-Text" d="m8 2a6 6 0 0 0-6 6 6 6 0 0 0 5 5.9141v-1.0156a5 5 0 0 1-4-4.8984 5 5 0 0 1 5-5 5 5 0 0 1 4.8945 4h1.0156a6 6 0 0 0-5.9102-5zm0 2c-2.2091 0-4 1.7909-4 4h2c0-1.1046 0.89543-2 2-2v-2zm1 4v1h-1v1h1v2h-1v1h1v1h1v-1h2v1h1v-1h1v-1h-1v-2h1v-1h-1v-1h-1v1h-2v-1h-1zm1 2h2v2h-2v-2z" fill="currentColor"/>
</svg>
