<svg version="1.1" viewBox="0 0 16 16" xmlns="http://www.w3.org/2000/svg">
 <defs>
  <style id="current-color-scheme" type="text/css">
   .ColorScheme-Text { color:#000000; } .ColorScheme-Highlight { color:#00b7eb; } .ColorScheme-NeutralText { color:#ff7800; } .ColorScheme-PositiveText { color:#33d17a; } .ColorScheme-NegativeText { color:#e01b24; }
  </style>
 </defs>
 <g transform="translate(-421.71 -531.79)" fill="currentColor">
  <path class="ColorScheme-ViewBackground" d="m423.71 545.79v-6h1v5h5v-5h1v5h5v-5h1v6h-13zm0-7v-5h1v5h-1zm6 0v-5h1v5h-1zm6 0v-5h1v5h-1z"/>
  <path class="ColorScheme-Text" d="m423.71 533.79h13v-1h-13z"/>
  <path class="ColorScheme-Text" d="m435.71 544.79v-5h-5v5h5zm-6 0v-5h-5v5h5zm6-6v-5h-5v5h5zm-6 0v-5h-5v5h5z" fill-opacity=".5"/>
 </g>
</svg>
