<svg version="1.1" viewBox="0 0 16 16" xmlns="http://www.w3.org/2000/svg">
 <defs>
  <style id="current-color-scheme" type="text/css">
   .ColorScheme-Text { color:#000000; } .ColorScheme-Highlight { color:#00b7eb; } .ColorScheme-NeutralText { color:#ff7800; } .ColorScheme-PositiveText { color:#33d17a; } .ColorScheme-NegativeText { color:#e01b24; }
  </style>
 </defs>
 <g transform="translate(-421.71 -531.79)" fill="currentColor">
  <path class="ColorScheme-ViewBackground" d="m2 1v6h1v-5h5v-1h-6zm7 0v1h5v5h1v-6h-6zm-7 7v6h6v-1h-5v-5h-1zm12 0v5h-5v1h6v-6h-1z"/>
  <path class="ColorScheme-Text" transform="translate(421.71 531.79)" d="m8 1v6h-6v1h6v6h1v-6h6v-1h-6v-6h-1z"/>
  <path class="ColorScheme-Text" d="m435.71 533.79v5h-5v-5h5zm-6 0v5h-5v-5h5zm6 6v5h-5v-5h5zm-6 0v5h-5v-5h5z" fill-opacity=".5"/>
 </g>
</svg>
