<svg viewBox="0 0 16 16" xmlns="http://www.w3.org/2000/svg">
 <defs>
  <style id="current-color-scheme" type="text/css">
   .ColorScheme-Text { color:#000000; } .ColorScheme-Highlight { color:#00b7eb; } .ColorScheme-NeutralText { color:#ff7800; } .ColorScheme-PositiveText { color:#33d17a; } .ColorScheme-NegativeText { color:#e01b24; }
  </style>
 </defs>
 <path class="ColorScheme-Text" d="m8 2a6 6 0 0 0-5.9141 5h1.0161a5 5 0 0 1 4.898-4 5 5 0 0 1 4.5723 3h-3.5723v1h5v-5h-1v2.699a6 6 0 0 0-5-2.699m-6 7v5h1v-2.699a6 6 0 0 0 5 2.699 6 6 0 0 0 5.9141-5h-1.0161a5 5 0 0 1-4.898 4 5 5 0 0 1-4.5723-3h3.5723v-1h-4.91z" fill="currentColor"/>
</svg>
