<svg width="16" height="16" version="1.1" viewBox="0 0 16 16" xmlns="http://www.w3.org/2000/svg">
 <defs>
  <style id="current-color-scheme" type="text/css">
   .ColorScheme-Text { color:#000000; } .ColorScheme-Highlight { color:#00b7eb; } .ColorScheme-NeutralText { color:#ff7800; } .ColorScheme-PositiveText { color:#33d17a; } .ColorScheme-NegativeText { color:#e01b24; }
  </style>
 </defs>
 <g transform="translate(0 -1036.4)">
  <path class="ColorScheme-Text" transform="translate(0,1036.4)" d="m5 2v7h1v-5h7v5h1v-7h-9zm-2.9141 7.3008-0.707 0.7072 1.4141 1.414-1.4141 1.414 0.707 0.707 1.4141-1.414 1.4141 1.414 0.707-0.707-1.4141-1.414 1.4141-1.414-0.707-0.7072-1.4141 1.4142-1.4141-1.4142zm8.0001 0-0.7071 0.7072 1.4141 1.414-1.4141 1.414 0.7071 0.707 1.414-1.414 1.414 1.414 0.707-0.707-1.414-1.414 1.414-1.414-0.707-0.7072-1.414 1.4142-1.414-1.4142z" fill="currentColor"/>
 </g>
</svg>
