<svg viewBox="0 0 16 16" xmlns="http://www.w3.org/2000/svg">
 <defs>
  <style id="current-color-scheme" type="text/css">
   .ColorScheme-Text { color:#000000; } .ColorScheme-Highlight { color:#00b7eb; } .ColorScheme-NeutralText { color:#ff7800; } .ColorScheme-PositiveText { color:#33d17a; } .ColorScheme-NegativeText { color:#e01b24; }
  </style>
 </defs>
 <path class="ColorScheme-Text" d="m1 2a7 9 0 0 0 4.5039 8.3965 2.5 2.5 0 0 1 0.25195-0.99219 6 8 0 0 1-3.7559-7.4043zm13 0a6 8 0 0 1-3.752 7.4102 2.5 2.5 0 0 1 0.24805 0.97852 7 9 0 0 0 4.5039-8.3887z" fill="currentColor"/>
 <path class="ColorScheme-Highlight" d="m8.0043 8.0007a2.5 2.5 0 0 0-2.5 2.5 2.5 2.5 0 0 0 2.5 2.5 2.5 2.5 0 0 0 2.5-2.5 2.5 2.5 0 0 0-2.5-2.5m0 1a1.5 1.5 0 0 1 1.5 1.5 1.5 1.5 0 0 1-1.5 1.5 1.5 1.5 0 0 1-1.5-1.5 1.5 1.5 0 0 1 1.5-1.5" fill="currentColor"/>
</svg>
