<svg viewBox="0 0 16 16" xmlns="http://www.w3.org/2000/svg">
 <defs>
  <style id="current-color-scheme" type="text/css">
   .ColorScheme-Text { color:#000000; } .ColorScheme-Highlight { color:#00b7eb; } .ColorScheme-NeutralText { color:#ff7800; } .ColorScheme-PositiveText { color:#33d17a; } .ColorScheme-NegativeText { color:#e01b24; }
  </style>
 </defs>
 <path class="ColorScheme-Text" d="m2 2v12h12v-1h-11v-11h-1zm2 0v1h1v-1h-1zm2 0v1h1v-1h-1zm6 1v1h1v-1h-1zm1 1v1h1v-1h-1zm0 1h-1v1h1v-1zm-1 0v-1h-1v1h1zm-8-1v1h1v-1h-1zm2 0v1h1v-1h-1zm3 3v1h1v-1h-1zm2 0v1h1v-1h-1zm-6 2v1h1v-1h-1zm1 1v1h1v-1h-1zm0 1h-1v1h1v-1zm-1 0v-1h-1v1h1zm4-2v1h1v-1h-1zm2 0v1h1v-1h-1z" fill="currentColor"/>
</svg>
