<svg viewBox="0 0 16 16" xmlns="http://www.w3.org/2000/svg">
 <defs>
  <style id="current-color-scheme" type="text/css">
   .ColorScheme-Text { color:#000000; } .ColorScheme-Highlight { color:#00b7eb; } .ColorScheme-NeutralText { color:#ff7800; } .ColorScheme-PositiveText { color:#33d17a; } .ColorScheme-NegativeText { color:#e01b24; }
  </style>
 </defs>
 <path class="ColorScheme-Text" d="m9 2v12h1v-12h-1zm-8 1v2h2v-2h-2zm4 0v2h2v-2h-2zm7 0v1h2v-1h-2zm0 3v1h2v-1h-2zm-11 1v2h2v-2h-2zm4 0v2h2v-2h-2zm7 2v1h2v-1h-2zm-11 2v2h2v-2h-2zm4 0v2h2v-2h-2zm7 1v1h2v-1h-2z" fill="currentColor"/>
</svg>
