<svg version="1.1" viewBox="0 0 22 22" xmlns="http://www.w3.org/2000/svg">
 <defs>
  <style id="current-color-scheme" type="text/css">
   .ColorScheme-Text { color:#000000; } .ColorScheme-Highlight { color:#00b7eb; } .ColorScheme-NeutralText { color:#ff7800; } .ColorScheme-PositiveText { color:#33d17a; } .ColorScheme-NegativeText { color:#e01b24; }
  </style>
 </defs>
 <path class="ColorScheme-Text" d="m3 3v4h4v-4zm8 0v1h1v-1zm-7 1h2v2h-2zm7 2v1h1v-1zm0 3v1h1v-1zm5 0v4h4v-4zm1 1h2v2h-2zm-6 2v1h1v-1zm-8 3v4h4v-4zm8 0v1h1v-1zm-7 1h2v2h-2zm7 2v1h1v-1z" fill="currentColor"/>
 <path class="ColorScheme-Highlight" d="m8 3v4l3-2zm7 6-3 2 3 2zm-7 6v4l3-2z" fill="currentColor"/>
</svg>
