<svg viewBox="0 0 22 22" xmlns="http://www.w3.org/2000/svg">
 <defs>
  <style id="current-color-scheme" type="text/css">
   .ColorScheme-Text { color:#000000; } .ColorScheme-Highlight { color:#00b7eb; } .ColorScheme-NeutralText { color:#ff7800; } .ColorScheme-PositiveText { color:#33d17a; } .ColorScheme-NegativeText { color:#e01b24; }
  </style>
 </defs>
 <path class="ColorScheme-Text" d="m4 3v10h2v-2h-1v-7h12v7h-1v2h2v-10h-14m4 8v2h2v-2h-2m4 0v2h2v-2h-2m-6 3v2h2v-2h-2m4 0v2h2v-2h-2m4 0v2h2v-2h-2m-10 3v2h2v-2h-2m4 0v2h2v-2h-2m4 0v2h2v-2h-2m4 0v2h2v-2h-2" fill="currentColor"/>
</svg>
