<svg viewBox="0 0 22 22" xmlns="http://www.w3.org/2000/svg">
 <defs>
  <style id="current-color-scheme" type="text/css">
   .ColorScheme-Text { color:#000000; } .ColorScheme-Highlight { color:#00b7eb; } .ColorScheme-NeutralText { color:#ff7800; } .ColorScheme-PositiveText { color:#33d17a; } .ColorScheme-NegativeText { color:#e01b24; }
  </style>
 </defs>
 <path class="ColorScheme-Text" d="m3 3v3h3v-1h10v1h3v-3h-3v1h-10v-1h-3zm1 1h1v1h-1v-1zm13 0h1v1h-1v-1zm-14 12v3h3v-1h3v-1h-3v-1h-3zm13 0v1h-3v1h3v1h3v-3h-3zm-12 1h1v1h-1v-1zm13 0h1v1h-1v-1z" fill="currentColor"/>
 <path class="ColorScheme-Highlight" d="m9 9.5 2 3 2-3h-4z" fill="currentColor"/>
</svg>
