<svg viewBox="0 0 22 22" xmlns="http://www.w3.org/2000/svg">
 <defs>
  <style id="current-color-scheme" type="text/css">
   .ColorScheme-Text { color:#000000; } .ColorScheme-Highlight { color:#00b7eb; } .ColorScheme-NeutralText { color:#ff7800; } .ColorScheme-PositiveText { color:#33d17a; } .ColorScheme-NegativeText { color:#e01b24; }
  </style>
 </defs>
 <path class="ColorScheme-Text" d="m4 3v1h1v2h-1v1h3v-1h-1v-2h1v-1h-3zm6 0v1h9v-1h-9zm0 2v1h6v-1h-6zm-7 4v1h1v2h-1v1h5v-1h-1v-2h1v-1h-5zm7 0v1h9v-1h-9zm-5 1h1v2h-1v-2zm5 1v1h2v-1h-2zm0 4v1h9v-1h-9zm0 2v1h6v-1h-6zm7 1v1h2v-1h-2z" fill="currentColor"/>
</svg>
