<svg viewBox="0 0 22 22" xmlns="http://www.w3.org/2000/svg">
 <defs>
  <style id="current-color-scheme" type="text/css">
   .ColorScheme-Text { color:#000000; } .ColorScheme-Highlight { color:#00b7eb; } .ColorScheme-NeutralText { color:#ff7800; } .ColorScheme-PositiveText { color:#33d17a; } .ColorScheme-NegativeText { color:#e01b24; }
  </style>
 </defs>
 <path class="ColorScheme-Text" d="m3 2v9h16v-9h-16zm1 1h1v1h-1v-1zm2 0h10v7h-10v-7zm11 0h1v1h-1v-1zm-13 3h1v1h-1v-1zm13 0h1v1h-1v-1zm-13 3h1v1h-1v-1zm13 0h1v1h-1v-1zm-12 3v2h-1v1h-1v1h1v1h1v2h1v-1h1v-1h1v-1h1v1h1v2h1v-1h1v-2h1v1h1v1h1v1h1v-1h1v-1h1v-1h1v-1h-1v-1h-1v-1h-1v-1h-1v1h-1v1h-1v1h-1v-2h-1v-1h-1v2h-1v1h-1v-1h-1v-1h-1v-1h-1z" fill="currentColor"/>
</svg>
