<svg viewBox="0 0 22 22" xmlns="http://www.w3.org/2000/svg">
 <defs>
  <style id="current-color-scheme" type="text/css">
   .ColorScheme-Text { color:#000000; } .ColorScheme-Highlight { color:#00b7eb; } .ColorScheme-NeutralText { color:#ff7800; } .ColorScheme-PositiveText { color:#33d17a; } .ColorScheme-NegativeText { color:#e01b24; }
  </style>
 </defs>
 <path class="ColorScheme-Text" d="m3 3v16h16v-16h-16zm3 2h10v12h-10v-12zm-2 1h1v1h-1v-1zm13 0h1v1h-1v-1zm-13 2h1v1h-1v-1zm5 0v6l4-3-4-3zm8 0h1v1h-1v-1zm-13 2h1v1h-1v-1zm13 0h1v1h-1v-1zm-13 2h1v1h-1v-1zm13 0h1v1h-1v-1zm-13 2h1v1h-1v-1zm13 0h1v1h-1v-1zm-13 2h1v1h-1v-1zm13 0h1v1h-1v-1z" fill="currentColor"/>
</svg>
