<svg viewBox="0 0 22 22" xmlns="http://www.w3.org/2000/svg">
 <defs>
  <style id="current-color-scheme" type="text/css">
   .ColorScheme-Text { color:#000000; } .ColorScheme-Highlight { color:#00b7eb; } .ColorScheme-NeutralText { color:#ff7800; } .ColorScheme-PositiveText { color:#33d17a; } .ColorScheme-NegativeText { color:#e01b24; }
  </style>
 </defs>
 <path class="ColorScheme-Text" d="m6 3v1h1v-1h-1zm9 0v1h1v-1h-1zm-9 2v1h-3v10h3v1h1v-1h3v-3h2v3h3v1h1v-1h3v-10h-3v-1h-1v1h-3v3h-2v-3h-3v-1h-1zm-2 2h5v8h-5v-8zm9 0h5v8h-5v-8zm1 1v6h3v-6h-3zm-4 2h2v2h-2v-2zm-4 8v1h1v-1h-1zm9 0v1h1v-1h-1z" fill="currentColor"/>
</svg>
