<svg viewBox="0 0 22 22" xmlns="http://www.w3.org/2000/svg">
 <defs>
  <style id="current-color-scheme" type="text/css">
   .ColorScheme-Text { color:#000000; } .ColorScheme-Highlight { color:#00b7eb; } .ColorScheme-NeutralText { color:#ff7800; } .ColorScheme-PositiveText { color:#33d17a; } .ColorScheme-NegativeText { color:#e01b24; }
  </style>
 </defs>
 <path class="ColorScheme-Text" d="m11 3c-2.77 0-5 2.23-5 5v11h4v-11c0-0.554 0.446-1 1-1s1 0.446 1 1v11h4v-11c0-2.77-2.23-5-5-5m0 1c2.216 0 4 1.784 4 4v10h-2v-10c0-1.108-0.892-2-2-2s-2 0.892-2 2v10h-2v-10c0-2.216 1.784-4 4-4" fill="currentColor"/>
</svg>
