<svg viewBox="0 0 22 22" xmlns="http://www.w3.org/2000/svg">
 <defs>
  <style id="current-color-scheme" type="text/css">
   .ColorScheme-Text { color:#000000; } .ColorScheme-Highlight { color:#00b7eb; } .ColorScheme-NeutralText { color:#ff7800; } .ColorScheme-PositiveText { color:#33d17a; } .ColorScheme-NegativeText { color:#e01b24; }
  </style>
 </defs>
 <path class="ColorScheme-Text" d="m3 3v16h16v-16h-16zm1 1h5v5h-5v-5zm6 0h2v2h-2v-2zm3 0h2v2h-2v-2zm3 0h2v2h-2v-2zm-6 3h2v2h-2v-2zm3 0h2v2h-2v-2zm3 0h2v2h-2v-2zm-12 3h2v2h-2v-2zm3 0h2v2h-2v-2zm3 0h2v2h-2v-2zm3 0h2v2h-2v-2zm3 0h2v2h-2v-2zm-12 3h2v2h-2v-2zm3 0h2v2h-2v-2zm3 0h2v2h-2v-2zm3 0h2v2h-2v-2zm3 0h2v2h-2v-2zm-12 3h2v2h-2v-2zm3 0h2v2h-2v-2zm3 0h2v2h-2v-2zm3 0h2v2h-2v-2zm3 0h2v2h-2v-2z" fill="currentColor"/>
 <path class="ColorScheme-Highlight" d="m4 4v5h5v-5h-5z" fill="currentColor"/>
</svg>
