<svg viewBox="0 0 22 22" xmlns="http://www.w3.org/2000/svg">
 <defs>
  <style id="current-color-scheme" type="text/css">
   .ColorScheme-Text { color:#000000; } .ColorScheme-Highlight { color:#00b7eb; } .ColorScheme-NeutralText { color:#ff7800; } .ColorScheme-PositiveText { color:#33d17a; } .ColorScheme-NegativeText { color:#e01b24; }
  </style>
 </defs>
 <path class="ColorScheme-Text" d="m2 3v2h2v-2h-2zm9 0a9 8 0 0 0-9 8 9 8 0 0 0 9 8 9 8 0 0 0 9-8 9 8 0 0 0-9-8zm7 0v2h2v-2h-2zm-7 1a8 7 0 0 1 8 7 8 7 0 0 1-8 7 8 7 0 0 1-8-7 8 7 0 0 1 8-7zm-9 13v2h2v-2h-2zm16 0v2h2v-2h-2z" fill="currentColor"/>
</svg>
