<svg viewBox="0 0 22 22" xmlns="http://www.w3.org/2000/svg">
 <defs>
  <style id="current-color-scheme" type="text/css">
   .ColorScheme-Text { color:#000000; } .ColorScheme-Highlight { color:#00b7eb; } .ColorScheme-NeutralText { color:#ff7800; } .ColorScheme-PositiveText { color:#33d17a; } .ColorScheme-NegativeText { color:#e01b24; }
  </style>
 </defs>
 <path class="ColorScheme-Text" d="m5 4-2 6v7h1v2h2v-2h10v2h2v-2h1v-7l-2-6h-12zm0.7207 1h10.559l1.666 5h-13.891l1.666-5zm-1.7207 6h14v5h-14v-5zm2.5 1a1.5 1 0 0 0-1.5 1 1.5 1 0 0 0 1.5 1 1.5 1 0 0 0 1.5-1 1.5 1 0 0 0-1.5-1zm9 0a1.5 1 0 0 0-1.5 1 1.5 1 0 0 0 1.5 1 1.5 1 0 0 0 1.5-1 1.5 1 0 0 0-1.5-1z" fill="currentColor"/>
</svg>
