<svg viewBox="0 0 22 22" xmlns="http://www.w3.org/2000/svg">
 <defs>
  <style id="current-color-scheme" type="text/css">
   .ColorScheme-Text { color:#000000; } .ColorScheme-Highlight { color:#00b7eb; } .ColorScheme-NeutralText { color:#ff7800; } .ColorScheme-PositiveText { color:#33d17a; } .ColorScheme-NegativeText { color:#e01b24; }
  </style>
 </defs>
 <g class="ColorScheme-NegativeText" transform="translate(-421.71 -525.79)">
  <circle cx="432.71" cy="536.79" r="6" fill="#fff"/>
  <path d="M432.714 528.79a8 8 0 0 0-8 8 8 8 0 0 0 8 8 8 8 0 0 0 8-8 8 8 0 0 0-8-8m-3.293 4l3.293 3.294 3.293-3.293.707.707-3.293 3.293 3.293 3.293-.707.707-3.293-3.293-3.293 3.293-.707-.707 3.293-3.293-3.293-3.293.707-.707" fill="#e01b24"/>
 </g>
</svg>
