<svg viewBox="0 0 32 32" xmlns="http://www.w3.org/2000/svg">
 <defs>
  <style id="current-color-scheme" type="text/css">
   .ColorScheme-Text { color:#000000; } .ColorScheme-Highlight { color:#00b7eb; } .ColorScheme-NeutralText { color:#ff7800; } .ColorScheme-PositiveText { color:#33d17a; } .ColorScheme-NegativeText { color:#e01b24; }
  </style>
 </defs>
 <path class="ColorScheme-Text" d="m23.779 3.9805-19.799 19.799 4.2422 4.2441 19.799-19.799-4.2422-4.2441zm-17.529 0.019531-0.79688 1.4531-1.4531 0.79688 1.4531 0.79688 0.79688 1.4531 0.79688-1.4531 1.4531-0.79688-1.4531-0.79688-0.79688-1.4531zm7.5 0-0.79688 1.4531-1.4531 0.79688 1.4531 0.79688 0.79688 1.4531 0.79688-1.4531 1.4531-0.79688-1.4531-0.79688-0.79688-1.4531zm10.027 1.3945 2.8281 2.8281-5.6582 5.6582-2.8281-2.8281 5.6582-5.6582zm-14.527 4.6055-0.79688 1.4531-1.4531 0.79688 1.4531 0.79688 0.79688 1.4531 0.79688-1.4531 1.4531-0.79688-1.4531-0.79688-0.79688-1.4531z" fill="currentColor"/>
</svg>
