<!DOCTYPE svg>
<svg version="1.1" viewBox="0 0 32 32" xmlns="http://www.w3.org/2000/svg">
 <defs>
  <style id="current-color-scheme" type="text/css">
   .ColorScheme-Text { color:#000000; } .ColorScheme-Highlight { color:#00b7eb; } .ColorScheme-NeutralText { color:#ff7800; } .ColorScheme-PositiveText { color:#33d17a; } .ColorScheme-NegativeText { color:#e01b24; }
  </style>
 </defs>
 <path class="ColorScheme-Text" d="m6 28v-12h1v11h18v-11h1v12h-20zm3-13v-2h2v2h-2zm6 0v-2h2v2h-2zm6 0v-2h2v2h-2zm-15-3v-2h2v2h-2zm6 0v-2h2v2h-2zm6 0v-2h2v2h-2zm6 0v-2h2v2h-2zm-15-3v-2h2v2h-2zm6 0v-2h2v2h-2zm6 0v-2h2v2h-2zm-15-3v-2h2v2h-2zm6 0v-2h2v2h-2zm6 0v-2h2v2h-2zm6 0v-2h2v2h-2z" fill="currentColor"/>
</svg>
