<svg viewBox="0 0 32 32" xmlns="http://www.w3.org/2000/svg">
 <defs>
  <style id="current-color-scheme" type="text/css">
   .ColorScheme-Text { color:#000000; } .ColorScheme-Highlight { color:#00b7eb; } .ColorScheme-NeutralText { color:#ff7800; } .ColorScheme-PositiveText { color:#33d17a; } .ColorScheme-NegativeText { color:#e01b24; }
  </style>
 </defs>
 <path class="ColorScheme-Text" d="m4 4v1h24v-1h-24zm5.5391 2-5 5 0.70703 0.70703 3.793-3.793v20.09h1v-20.09l3.793 3.793 0.70703-0.70703-5-5zm6.4609 1v1h11v-1h-11zm0 3v1h12v-1h-12zm0 3v1h5v-1h-5zm0 3v1h11v-1h-11zm0 3v1h12v-1h-12zm0 3v1h6v-1h-6zm0 3v1h9v-1h-9z" fill="currentColor"/>
</svg>
