<svg viewBox="0 0 24 24" xmlns="http://www.w3.org/2000/svg">
 <defs>
  <style id="current-color-scheme" type="text/css">
   .ColorScheme-Text { color:#000000; } .ColorScheme-Highlight { color:#00b7eb; } .ColorScheme-NeutralText { color:#ff7800; } .ColorScheme-PositiveText { color:#33d17a; } .ColorScheme-NegativeText { color:#e01b24; }
  </style>
 </defs>
 <g transform="translate(1,1)">
  <path class="ColorScheme-Text" d="m10 3v2.0898a6 6 0 0 0-4.9141 4.9102h-2.0859v2h2.0898a6 6 0 0 0 5.9102 5 6 6 0 0 0 5.9141-5h2.0859v-2h-2.0898a6 6 0 0 0-4.9102-4.9141v-2.0859h-2zm1 3a5 5 0 0 1 5 5 5 5 0 0 1-5 5 5 5 0 0 1-5-5 5 5 0 0 1 5-5z" fill="currentColor"/>
 </g>
</svg>
