<!DOCTYPE svg>
<svg version="1.1" viewBox="0 0 24 24" xmlns="http://www.w3.org/2000/svg">
 <defs>
  <style id="current-color-scheme" type="text/css">
   .ColorScheme-Text { color:#000000; } .ColorScheme-Highlight { color:#00b7eb; } .ColorScheme-NeutralText { color:#ff7800; } .ColorScheme-PositiveText { color:#33d17a; } .ColorScheme-NegativeText { color:#e01b24; }
  </style>
 </defs>
 <g transform="translate(1,1)">
  <path class="ColorScheme-Text" d="m18 17v1h-4v-1h4zm-14-14v14h2v2h6v-1h-5v-12h6v4h4v1h1v-2l-6-6h-8zm1 1h6v1h-5v11h-1v-12zm8 12v3h6v-3h-1v-2c0-1.1046-0.8954-2-2-2s-2 0.8954-2 2v1h1v-1c0-0.5523 0.4477-1 1-1s1 0.4477 1 1v2h-4z" fill="currentColor"/>
 </g>
</svg>
