<svg viewBox="0 0 24 24" xmlns="http://www.w3.org/2000/svg">
 <defs>
  <style id="current-color-scheme" type="text/css">
   .ColorScheme-Text { color:#000000; } .ColorScheme-Highlight { color:#00b7eb; } .ColorScheme-NeutralText { color:#ff7800; } .ColorScheme-PositiveText { color:#33d17a; } .ColorScheme-NegativeText { color:#e01b24; }
  </style>
 </defs>
 <path class="ColorScheme-Text" transform="translate(1,1)" d="m4 3v14h2v2h6v-1h-5v-12h10v5h1v-6h-2v-2h-12zm1 1h10v1h-9v11h-1v-12zm11 8a2 2 0 0 0-2 2v2h-1v3h6v-3h-1v-2a2 2 0 0 0-2-2zm0 1a1 1 0 0 1 1 1v2h-2v-2a1 1 0 0 1 1-1z" fill="currentColor"/>
</svg>
