<svg viewBox="0 0 24 24" xmlns="http://www.w3.org/2000/svg">
 <defs>
  <style id="current-color-scheme" type="text/css">
   .ColorScheme-Text { color:#000000; } .ColorScheme-Highlight { color:#00b7eb; } .ColorScheme-NeutralText { color:#ff7800; } .ColorScheme-PositiveText { color:#33d17a; } .ColorScheme-NegativeText { color:#e01b24; }
  </style>
 </defs>
 <path class="ColorScheme-Text" d="m5 4v14h4v2h5v-1h-4v-11h8v4h1v-5h-2v-3h-12zm1 1h10v2h-7v10h-3v-12zm11.5 8a3.5 3.5 0 0 0-3.5 3.5 3.5 3.5 0 0 0 3.5 3.5 3.5 3.5 0 0 0 3.5-3.5 3.5 3.5 0 0 0-3.5-3.5zm0 1a2.5 2.5 0 0 1 2.5 2.5 2.5 2.5 0 0 1-2.5 2.5 2.5 2.5 0 0 1-2.5-2.5 2.5 2.5 0 0 1 2.5-2.5zm-0.5 1v3h2v-1h-1v-2h-1z" fill="currentColor"/>
</svg>
