<svg viewBox="0 0 24 24" xmlns="http://www.w3.org/2000/svg">
 <defs>
  <style id="current-color-scheme" type="text/css">
   .ColorScheme-Text { color:#000000; } .ColorScheme-Highlight { color:#00b7eb; } .ColorScheme-NeutralText { color:#ff7800; } .ColorScheme-PositiveText { color:#33d17a; } .ColorScheme-NegativeText { color:#e01b24; }
  </style>
 </defs>
 <path class="ColorScheme-Text" d="m5 4v14h4v2h5v-1h-4v-11h8v5h1v-6h-2v-3h-12zm1 1h10v2h-7v10h-3v-12zm10 9v1h-1v1h1v2h-1v1h1v1h1v-1h2v1h1v-1h1v-1h-1v-2h1v-1h-1v-1h-1v1h-2v-1h-1zm1 2h2v2h-2v-2z" fill="currentColor"/>
</svg>
