<svg viewBox="0 0 24 24" xmlns="http://www.w3.org/2000/svg">
 <defs>
  <style id="current-color-scheme" type="text/css">
   .ColorScheme-Text { color:#000000; } .ColorScheme-Highlight { color:#00b7eb; } .ColorScheme-NeutralText { color:#ff7800; } .ColorScheme-PositiveText { color:#33d17a; } .ColorScheme-NegativeText { color:#e01b24; }
  </style>
 </defs>
 <path class="ColorScheme-Text" d="m4 4v16h16v-16h-16zm1 1h8v14h-8v-14zm11.5 0 0.375 0.375 2.125 1.9375-0.71875 0.6875-1.7812-1.625-1.7812 1.625-0.71875-0.6875 2.125-1.9375 0.375-0.375zm-10.5 2v1h5v-1h-5zm0 3v1h5v-1h-5zm0 3v1h5v-1h-5zm0 3v1h5v-1h-5zm8.7188 0 1.7812 1.625 1.7812-1.625 0.71875 0.6875-2.125 1.9375-0.375 0.375-0.375-0.375-2.125-1.9375 0.71875-0.6875z" fill="currentColor"/>
</svg>
