<svg version="1.1" viewBox="0 0 24 24" xmlns="http://www.w3.org/2000/svg">
 <defs>
  <style id="current-color-scheme" type="text/css">
   .ColorScheme-Text { color:#000000; } .ColorScheme-Highlight { color:#00b7eb; } .ColorScheme-NeutralText { color:#ff7800; } .ColorScheme-PositiveText { color:#33d17a; } .ColorScheme-NegativeText { color:#e01b24; }
  </style>
 </defs>
 <g transform="translate(1,1)">
  <g transform="translate(0 -1030.4)">
   <path class="ColorScheme-Text" transform="translate(0,1030.4)" d="m8 4v10h1v-8h7v8h1v-10h-9zm-2.9141 10.301-0.707 0.707 1.4141 1.414-1.4141 1.414 0.707 0.707 1.4141-1.414 1.4141 1.414 0.707-0.707-1.4141-1.414 1.4141-1.414-0.707-0.707-1.4141 1.414-1.4141-1.414zm8.0001 0-0.707 0.707 1.414 1.414-1.414 1.414 0.707 0.707 1.414-1.414 1.414 1.414 0.707-0.707-1.414-1.414 1.414-1.414-0.707-0.707-1.414 1.414-1.414-1.414z" fill="currentColor"/>
  </g>
 </g>
</svg>
