<svg viewBox="0 0 24 24" xmlns="http://www.w3.org/2000/svg">
 <defs>
  <style id="current-color-scheme" type="text/css">
   .ColorScheme-Text { color:#000000; } .ColorScheme-Highlight { color:#00b7eb; } .ColorScheme-NeutralText { color:#ff7800; } .ColorScheme-PositiveText { color:#33d17a; } .ColorScheme-NegativeText { color:#e01b24; }
  </style>
 </defs>
 <path class="ColorScheme-Text" d="m5 4v14h-1v1h1v1h1v-1h14.00003v-1h-14.00007v-14.000076h-1zm13 0v1h1v-1h-1zm1 1v1h1v-1h-1zm0 1h-1v1h1v-1zm-1 0v-1h-1v1h1zm-11-1v1h1v-1h-1zm2 0v1h1v-1h-1zm-2 2v1h1v-1h-1zm2 0v1h1v-1h-1zm3 1v1h1v-1h-1zm2 0v1h1v-1h-1zm-2 2v1h1v-1h-1zm2 0v1h1v-1h-1zm-6 4v1h1v-1h-1zm1 1v1h1v-1h-1zm0 1h-1v1h1v-1zm-1 0v-1h-1v1h1z" fill="currentColor"/>
</svg>
