<svg viewBox="0 0 24 24" xmlns="http://www.w3.org/2000/svg">
 <defs>
  <style id="current-color-scheme" type="text/css">
   .ColorScheme-Text { color:#000000; } .ColorScheme-Highlight { color:#00b7eb; } .ColorScheme-NeutralText { color:#ff7800; } .ColorScheme-PositiveText { color:#33d17a; } .ColorScheme-NegativeText { color:#e01b24; }
  </style>
 </defs>
 <path class="ColorScheme-Text" d="m17 4v3h3v-3h-3zm1 1h1v1h-1v-1zm-2.3926 10c0.0295-0.016-0.60742 0.60938-0.60742 0.60938l1.9043 1.8906-1.873 1.9355 0.57617 0.56445 2.3926-2.5-2.3926-2.5zm3.3926 0v5h1v-5h-1zm-15 2v3h3v-3h-3zm1 1h1v1h-1v-1z" fill="currentColor"/>
 <path class="ColorScheme-Highlight" d="m17 5a12 12 0 0 0-12 12h1a11 11 0 0 1 11-11v-1z" fill="currentColor"/>
</svg>
