<svg viewBox="0 0 24 24" xmlns="http://www.w3.org/2000/svg">
 <defs>
  <style id="current-color-scheme" type="text/css">
   .ColorScheme-Text { color:#000000; } .ColorScheme-Highlight { color:#00b7eb; } .ColorScheme-NeutralText { color:#ff7800; } .ColorScheme-PositiveText { color:#33d17a; } .ColorScheme-NegativeText { color:#e01b24; }
  </style>
 </defs>
 <g transform="translate(1,1)">
  <path class="ColorScheme-Text" d="m6 3v2h-1v1h-2v1h2v2h-2v1h2v2h-2v1h2v2h-2v1h2v1h1v2h1v-2h2v2h1v-2h2v2h1v-2h2v2h1v-2h1v-1h2v-1h-2v-2h2v-1h-2v-2h2v-1h-2v-2h2v-1h-2v-1h-1v-2h-1v2h-2v-2h-1v2h-2v-2h-1v2h-2v-2h-1z" fill="currentColor"/>
 </g>
</svg>
