<svg viewBox="0 0 24 24" xmlns="http://www.w3.org/2000/svg">
 <defs>
  <style id="current-color-scheme" type="text/css">
   .ColorScheme-Text { color:#000000; } .ColorScheme-Highlight { color:#00b7eb; } .ColorScheme-NeutralText { color:#ff7800; } .ColorScheme-PositiveText { color:#33d17a; } .ColorScheme-NegativeText { color:#e01b24; }
  </style>
 </defs>
 <path class="ColorScheme-Text" d="m12 5a8 7 0 0 0-8 7 8 7 0 0 0 8 7 8 7 0 0 0 8-7 8 7 0 0 0-8-7zm0 1a7 6 0 0 1 7 6 7 6 0 0 1-7 6 7 6 0 0 1-7-6 7 6 0 0 1 7-6z" fill="currentColor"/>
 <path class="ColorScheme-Highlight" d="m12 10a2 2 0 0 0-2 2 2 2 0 0 0 2 2 2 2 0 0 0 2-2 2 2 0 0 0-2-2zm0 1a1 1 0 0 1 1 1 1 1 0 0 1-1 1 1 1 0 0 1-1-1 1 1 0 0 1 1-1z" fill="currentColor"/>
</svg>
