<svg viewBox="0 0 24 24" xmlns="http://www.w3.org/2000/svg">
 <defs>
  <style id="current-color-scheme" type="text/css">
   .ColorScheme-Text { color:#000000; } .ColorScheme-Highlight { color:#00b7eb; } .ColorScheme-NeutralText { color:#ff7800; } .ColorScheme-PositiveText { color:#33d17a; } .ColorScheme-NegativeText { color:#e01b24; }
  </style>
 </defs>
 <g transform="translate(1,1)">
  <path class="ColorScheme-Text" d="m7 3v2h-3v14h9v-1h-8v-12h1v2h10v-2h1v7h1v-8h-3v-2h-8zm0 6v1h8v-1h-8zm0 3v1h6v-1h-6zm9 1-0.57422 1.6133-1.5469-0.73438 0.73438 1.5469-1.6133 0.57422 1.6133 0.57422-0.73438 1.5469 1.5469-0.73438 0.57422 1.6133 0.57422-1.6133 1.5469 0.73438-0.73438-1.5469 1.6133-0.57422-1.6133-0.57422 0.73438-1.5469-1.5469 0.73438-0.57422-1.6133zm-9 2v1h3v-1h-3z" fill="currentColor"/>
 </g>
</svg>
