<svg viewBox="0 0 24 24" xmlns="http://www.w3.org/2000/svg">
 <defs>
  <style id="current-color-scheme" type="text/css">
   .ColorScheme-Text { color:#000000; } .ColorScheme-Highlight { color:#00b7eb; } .ColorScheme-NeutralText { color:#ff7800; } .ColorScheme-PositiveText { color:#33d17a; } .ColorScheme-NegativeText { color:#e01b24; }
  </style>
 </defs>
 <path class="ColorScheme-Text" d="m6 12a4 4 0 0 0-4 4 4 4 0 0 0 4 4 4 4 0 0 0 3-1.3613v1.3613h1v-8h-1v1.3613a4 4 0 0 0-3-1.3613zm8 0v8h1v-1.3613a4 4 0 0 0 3 1.3613 4 4 0 0 0 4-4 4 4 0 0 0-4-4 4 4 0 0 0-3 1.3613v-1.3613h-1zm-8 1a3 3 0 0 1 3 3 3 3 0 0 1-3 3 3 3 0 0 1-3-3 3 3 0 0 1 3-3zm12 0a3 3 0 0 1 3 3 3 3 0 0 1-3 3 3 3 0 0 1-3-3 3 3 0 0 1 3-3z" fill="currentColor"/>
 <path class="ColorScheme-Highlight" d="m10 4-4 3 4 3v-6zm4 0v6l4-3-4-3z" fill="currentColor"/>
</svg>
