<svg viewBox="0 0 24 24" xmlns="http://www.w3.org/2000/svg">
 <defs>
  <style id="current-color-scheme" type="text/css">
   .ColorScheme-Text { color:#000000; } .ColorScheme-Highlight { color:#00b7eb; } .ColorScheme-NeutralText { color:#ff7800; } .ColorScheme-PositiveText { color:#33d17a; } .ColorScheme-NegativeText { color:#e01b24; }
  </style>
 </defs>
 <path class="ColorScheme-Text" d="m5 4v2h-1v1h1v1h-1v1h1v6h-1v1h1v1h-1v1h1v2h15v-16h-15zm3 1h2v2h-2v-2zm3 0h8v2h-8v-2zm-3 3h2v2h-2v-2zm3 0h8v2h-8v-2zm-3 3h2v2h-2v-2zm3 0h8v2h-8v-2zm-3 3h2v2h-2v-2zm3 0h8v2h-8v-2zm-3 3h2v2h-2v-2zm3 0h8v2h-8v-2z" fill="currentColor"/>
</svg>
