<svg viewBox="0 0 24 24" xmlns="http://www.w3.org/2000/svg">
 <defs>
  <style id="current-color-scheme" type="text/css">
   .ColorScheme-Text { color:#000000; } .ColorScheme-Highlight { color:#00b7eb; } .ColorScheme-NeutralText { color:#ff7800; } .ColorScheme-PositiveText { color:#33d17a; } .ColorScheme-NegativeText { color:#e01b24; }
  </style>
 </defs>
 <path class="ColorScheme-Text" d="m4 4v10h1v-6h14v2h1v-6h-2v2.0996h-2v-2.0996h-8v2.0996h-2v-2.0996h-2zm8 8v8h8v-8h-1v1h-1v-1h-4v1h-1v-1h-1zm1 2h6v5h-6v-5zm-7 1v2h-2v1h2v2h1v-2h2v-1h-2v-2h-1zm8 0v3h1v-1h2v1h1v-3h-1v1h-2v-1h-1z" fill="currentColor"/>
</svg>
