<?xml version="1.0" encoding="UTF-8"?>
<svg width="64" height="64" version="1.1" viewBox="0 0 16.933 16.933" xmlns="http://www.w3.org/2000/svg">
 <defs>
  <filter id="filter1178" x="-.047999" y="-.047999" width="1.096" height="1.096" color-interpolation-filters="sRGB">
   <feGaussianBlur stdDeviation="0.30691668"/>
  </filter>
  <linearGradient id="linearGradient1340" x1="8.355" x2="8.3996" y1="16.007" y2=".79375" gradientUnits="userSpaceOnUse">
   <stop stop-color="#deddda" offset="0"/>
   <stop stop-color="#fff" offset="1"/>
  </linearGradient>
 </defs>
 <g stroke-linecap="round" stroke-linejoin="round">
  <rect transform="matrix(.99138 0 0 1 .072989 .0019055)" x=".79375" y=".90545" width="15.346" height="15.346" rx="3.0526" ry="3.0526" filter="url(#filter1178)" opacity=".15" stroke-width="1.2489" style="mix-blend-mode:normal"/>
  <rect x=".92604" y=".92604" width="15.081" height="15.081" rx="3" ry="3" fill="url(#linearGradient1340)" stroke-width="1.2274"/>
  <rect x=".01215" y=".0060174" width="16.924" height="16.927" fill="none" opacity=".15" stroke-width="1.052"/>
 </g>
 <g stroke-width="1.3781">
  <path d="m10.8 7.0442h3.0526c0.2884 0 0.52218 0.24202 0.52218 0.54056v2.8784c0 1.0972-0.85926 1.9868-1.9192 1.9868h-0.0091c-1.0599 1.54e-4 -1.9192-0.88921-1.9194-1.9865v-3.1367c5e-6 -0.15603 0.12219-0.28252 0.27291-0.28252z" fill="#505ac9"/>
  <ellipse cx="12.863" cy="5.1946" rx="1.2367" ry="1.2803" fill="#505ac9"/>
  <ellipse cx="9.0158" cy="4.6256" rx="1.7864" ry="1.8493" fill="#7b83eb"/>
  <path d="m11.398 7.0442h-5.0388c-0.28496 0.00732-0.51037 0.25211-0.50377 0.54711v3.283c-0.039793 1.7703 1.3132 3.2394 3.0231 3.2826 1.71-0.04332 3.063-1.5124 3.0231-3.2826v-3.283c0.006628-0.295-0.21881-0.53982-0.50377-0.54711z" fill="#7b83eb"/>
 </g>
 <g stroke-width="1.3781">
  <path d="m9.1535 7.0442v4.6005c-0.0014 0.21096-0.12486 0.40049-0.31331 0.48082-0.059999 0.02628-0.12449 0.03981-0.18963 0.03983h-2.5532c-0.035728-0.093892-0.068702-0.18778-0.096191-0.28451-0.096205-0.32647-0.14529-0.66584-0.14566-1.0071v-3.2833c-0.0066273-0.29453 0.21844-0.53895 0.50294-0.54626z" opacity=".1"/>
  <path d="m8.8781 7.0442v4.885c0 0.06744-0.0131 0.1342-0.038475 0.19631-0.07759 0.19508-0.26067 0.32293-0.46447 0.32434h-2.1492c-0.046722-0.093883-0.090698-0.18778-0.12917-0.28451-0.038475-0.096735-0.068702-0.18778-0.096191-0.28451-0.096205-0.32646-0.14529-0.66584-0.14566-1.0071v-3.2833c-0.0066273-0.29453 0.21844-0.53895 0.50294-0.54626z" opacity=".2"/>
  <path d="m8.8781 7.0442v4.316c-0.00206 0.28665-0.22604 0.51848-0.50294 0.52065h-2.3745c-0.096205-0.32646-0.14529-0.66584-0.14566-1.0071v-3.2833c-0.0066273-0.29453 0.21844-0.53895 0.50294-0.54626z" opacity=".2"/>
 </g>
 <g stroke-width="1.3781">
  <path d="m8.6035 7.0442v4.316c-0.00206 0.28665-0.22604 0.51848-0.50294 0.52065h-2.0997c-0.096205-0.32646-0.14529-0.66584-0.14566-1.0071v-3.2833c-0.0066272-0.29453 0.21844-0.53895 0.50294-0.54626z" opacity=".2"/>
  <path d="m9.1535 5.573v0.89622c-0.046722 0.00282-0.090697 0.00572-0.13742 0.00572-0.046722 0-0.090697-0.00282-0.13742-0.00572-0.092767-0.0064032-0.18477-0.021611-0.27483-0.045516-0.55653-0.13643-1.0163-0.54049-1.2367-1.0868-0.03793-0.091749-0.06737-0.18701-0.087951-0.28451h1.3714c0.27734 0.00109 0.50189 0.23355 0.50295 0.52064z" opacity=".1"/>
  <path d="m8.8781 5.8573v0.61169c-0.092767-0.0064032-0.18477-0.021611-0.27483-0.045516-0.55653-0.13643-1.0163-0.54049-1.2367-1.0868h1.0086c0.27733 0.00109 0.50189 0.23355 0.50294 0.52064z" opacity=".2"/>
  <path d="m8.8781 5.8573v0.61169c-0.092767-0.0064032-0.18477-0.021611-0.27483-0.045516-0.55653-0.13643-1.0163-0.54049-1.2367-1.0868h1.0086c0.27733 0.00109 0.50189 0.23355 0.50294 0.52064z" opacity=".2"/>
  <path d="m8.6035 5.8573v0.56617c-0.55653-0.13643-1.0163-0.54049-1.2367-1.0868h0.7338c0.27733 0.00109 0.50189 0.23356 0.50294 0.52065z" opacity=".2"/>
  <path d="m3.0609 5.3368h5.0388c0.27823 0 0.50376 0.23349 0.50376 0.52151v5.2162c0 0.28802-0.22555 0.5215-0.50376 0.5215h-5.0388c-0.27823 0-0.50376-0.23349-0.50376-0.5215v-5.2162c0-0.28802 0.22555-0.52151 0.50376-0.52151z" fill="#464eb8"/>
  <path d="m6.9061 7.3224h-1.0073v2.8394h-0.64172v-2.8394h-1.0026v-0.55081h2.6516z" fill="#fff"/>
 </g>
</svg>
