<?xml version="1.0" encoding="UTF-8"?>
<svg width="64" height="64" version="1.1" viewBox="0 0 16.933 16.933" xmlns="http://www.w3.org/2000/svg">
 <defs>
  <filter id="filter1178" x="-.048" y="-.048" width="1.096" height="1.096" color-interpolation-filters="sRGB">
   <feGaussianBlur stdDeviation="0.30691955"/>
  </filter>
  <linearGradient id="linearGradient1340" x1="16.491" x2="6.0286" y1="16.346" y2="5.6537" gradientUnits="userSpaceOnUse">
   <stop stop-color="#f6d32d" offset="0"/>
   <stop stop-color="#e01b24" offset="1"/>
  </linearGradient>
  <clipPath id="clipPath1392">
   <path class="st0" d="m-31.273 1.0577h3.2176c0.14527 0 0.26427 0.12791 0.26427 0.28407v3.55c0 0.15616-0.119 0.28407-0.26427 0.28407h-3.2176c-0.14527-0.00164-0.26427-0.12791-0.26427-0.28407v-3.55c0-0.15616 0.119-0.28407 0.26427-0.28407zm0.03245 14.978h6.2992c0.14527 0 0.26427 0.12791 0.26427 0.28407v3.55c0 0.15616-0.119 0.28407-0.26427 0.28407h-6.2992c-0.14527 0-0.26427-0.12791-0.26427-0.28407v-3.5517c0.0016-0.15616 0.119-0.28241 0.26427-0.28241zm15.237 0h3.1728c0.14527 0 0.26427 0.12791 0.26427 0.28407v3.55c0 0.15616-0.119 0.28407-0.26427 0.28407h-3.1728c-0.14527 0-0.26427-0.12791-0.26427-0.28407v-3.5517c0-0.15616 0.119-0.28241 0.26427-0.28241zm-7.5989 0h6.2992c0.14527 0 0.26427 0.12791 0.26427 0.28407v3.55c0 0.15616-0.119 0.28407-0.26427 0.28407h-6.2992c-0.14527 0-0.26427-0.12791-0.26427-0.28407v-3.5517c0-0.15616 0.119-0.28241 0.26427-0.28241zm4.4926-4.9936h6.2992c0.14527 0 0.26427 0.12791 0.26427 0.28407v3.55c0 0.15616-0.119 0.28407-0.26427 0.28407h-6.2992c-0.14527 0-0.26427-0.12791-0.26427-0.28407v-3.55c0-0.15616 0.119-0.28407 0.26427-0.28407zm-7.6159 0h6.2992c0.14527 0 0.26427 0.12791 0.26427 0.28407v3.55c0 0.15616-0.119 0.28407-0.26427 0.28407h-6.2992c-0.14527 0-0.26427-0.12791-0.26427-0.28407v-3.55c0.0016-0.15616 0.119-0.28407 0.26427-0.28407zm-4.5467 0h3.2176c0.14527 0 0.26427 0.12791 0.26427 0.28407v3.55c0 0.15616-0.119 0.28407-0.26427 0.28407h-3.2176c-0.14527 0-0.26427-0.12791-0.26427-0.28407v-3.55c0-0.15616 0.119-0.28407 0.26427-0.28407zm0.03245-4.992h6.2992c0.14527 0 0.26427 0.12791 0.26427 0.28407v3.55c0 0.15616-0.119 0.28407-0.26427 0.28407h-6.2992c-0.14527 0-0.26427-0.12791-0.26427-0.28407v-3.55c0.0016-0.15616 0.119-0.28407 0.26427-0.28407zm15.237 0h3.1728c0.14527 0 0.26427 0.12791 0.26427 0.28407v3.55c0 0.15616-0.119 0.28407-0.26427 0.28407h-3.1728c-0.14527 0-0.26427-0.12791-0.26427-0.28407v-3.55c0-0.15616 0.119-0.28407 0.26427-0.28407zm-7.5989 0h6.2992c0.14527 0 0.26427 0.12791 0.26427 0.28407v3.55c0 0.15616-0.119 0.28407-0.26427 0.28407h-6.2992c-0.14527 0-0.26427-0.12791-0.26427-0.28407v-3.55c0-0.15616 0.119-0.28407 0.26427-0.28407zm4.4926-4.992h6.2992c0.14527 0 0.26427 0.12791 0.26427 0.28407v3.55c0 0.15616-0.119 0.28407-0.26427 0.28407h-6.2992c-0.14527 0-0.26427-0.12791-0.26427-0.28407v-3.55c0-0.15616 0.119-0.28407 0.26427-0.28407zm-7.6159 0h6.2992c0.14527 0 0.26427 0.12791 0.26427 0.28407v3.55c0 0.15616-0.119 0.28407-0.26427 0.28407h-6.2992c-0.14527 0-0.26427-0.12791-0.26427-0.28407v-3.55c0.0016-0.15616 0.119-0.28407 0.26427-0.28407z" fill="#ff7800" stroke-width=".16023"/>
  </clipPath>
  <linearGradient id="linearGradient1675" x1="-22.007" x2="-22.007" y1="2.77" y2="18.878" gradientTransform="matrix(.50133 0 0 .50133 19.542 3.0794)" gradientUnits="userSpaceOnUse">
   <stop stop-color="#fff" offset="0"/>
   <stop stop-color="#deddda" offset="1"/>
  </linearGradient>
  <filter id="filter1928" x="-.12591" y="-.094553" width="1.2518" height="1.1891" color-interpolation-filters="sRGB">
   <feGaussianBlur stdDeviation="0.4071827"/>
  </filter>
 </defs>
 <g stroke-linecap="round" stroke-linejoin="round">
  <rect transform="matrix(.99138 0 0 1 .072989 .0019055)" x=".79375" y=".90545" width="15.346" height="15.346" rx="3.0526" ry="3.0526" filter="url(#filter1178)" opacity=".15" stroke-width="1.2489" style="mix-blend-mode:normal"/>
  <rect x=".92604" y=".92604" width="15.081" height="15.081" rx="3" ry="3" fill="url(#linearGradient1340)" stroke-width="1.2274"/>
  <rect x=".01215" y=".0060174" width="16.924" height="16.927" fill="none" opacity=".15" stroke-width="1.052"/>
 </g>
 <style type="text/css"><![CDATA[
	.st0{fill-rule:evenodd;clip-rule:evenodd;fill:#EC6F59;}
	.st1{fill-rule:evenodd;clip-rule:evenodd;fill:#FAD15C;}
	.st2{fill-rule:evenodd;clip-rule:evenodd;fill:#393939;}
]]></style>
 <style type="text/css">.st0{fill-rule:evenodd;clip-rule:evenodd;}</style>
 <path d="m12.63 3.9014h-8.0363v4.596c-0.13884 2.0292 1.4245 3.8299 4.0181 4.7572 2.5936-0.9273 4.1569-2.728 4.0181-4.7572z" fill="url(#linearGradient1675)" stroke-width=".076116"/>
 <path transform="matrix(.43539 0 0 .43539 18.105 3.8026)" d="m-13.787 1.6396h-16.03v9.1677c-0.27694 4.0476 2.8414 7.6395 8.015 9.4892 5.1735-1.8497 8.2919-5.4416 8.015-9.4892z" clip-path="url(#clipPath1392)" fill="#ff7800" stroke-width=".15183"/>
 <path class="st1" transform="matrix(.64451 0 0 .64451 -6.747 -7.0056)" d="m27.743 31.487c-0.40902-1.056-0.35304-2.7605 0.79161-3.3593 0.0093 1.9611 1.9409 2.21 1.5832 4.3033 0.32971-0.37326 0.49612-0.97046 0.52567-1.4433 0.52256 1.1975 0.11198 2.1555-0.63298 2.6439-2.2691 1.4837-4.2224-1.5241-2.9223-3.1727 0.03733 0.36859 0.48834 0.93625 0.65475 1.028zm-1.2831-3.1696c-0.24417-2.1944 1.0373-3.7388 3.4417-4.6175-1.4712 1.9098 1.2551 3.9798 1.4059 5.9627 0.35304-0.60187 0.55211-1.4044 0.59254-2.4775 1.8025 2.8274 0.30794 7.4511-3.6594 6.7855-0.36392-0.06065-0.7154-0.17574-1.0342-0.34682-1.4464-0.77139-2.3111-2.4557-2.3111-4.0638 0-1.0249 0.43857-1.9394 1.0047-2.6657 0.07465 0.71229 0.23639 1.2426 0.55988 1.423z" filter="url(#filter1928)" opacity=".4" stroke-width=".15552"/>
 <path class="st0" d="m10.485 11.469c-0.15737-1.4143 0.66855-2.4097 2.2182-2.976-0.9482 1.2309 0.80892 2.565 0.90612 3.843 0.22754-0.38791 0.35584-0.90515 0.3819-1.5968 1.1617 1.8223 0.19847 4.8023-2.3585 4.3733-0.23455-0.03909-0.46108-0.11327-0.66655-0.22353-0.93222-0.49717-1.4895-1.5827-1.4895-2.6192 0-0.66056 0.28266-1.25 0.64754-1.7181 0.04811 0.45908 0.15236 0.80087 0.36085 0.91714z" fill="#e01b24" stroke-width=".10023"/>
 <path class="st1" d="m11.312 13.512c-0.26362-0.6806-0.22754-1.7792 0.5102-2.1651 6e-3 1.2639 1.2509 1.4244 1.0204 2.7735 0.2125-0.24057 0.31975-0.62547 0.3388-0.93022 0.3368 0.7718 0.07217 1.3892-0.40796 1.704-1.4625 0.95626-2.7214-0.9823-1.8835-2.0448 0.02406 0.23756 0.31474 0.60342 0.42199 0.66256z" fill="#f6d32d" stroke-width=".10023"/>
</svg>
