<?xml version="1.0" encoding="UTF-8"?>
<svg width="64" height="64" version="1.1" viewBox="0 0 16.933 16.933" xmlns="http://www.w3.org/2000/svg" xmlns:xlink="http://www.w3.org/1999/xlink">
 <defs>
  <filter id="filter1178" x="-.047999" y="-.047999" width="1.096" height="1.096" color-interpolation-filters="sRGB">
   <feGaussianBlur stdDeviation="0.30691668"/>
  </filter>
  <linearGradient id="linearGradient2156" x1="5.4447" x2="-22.104" y1="11.226" y2="11.226" gradientUnits="userSpaceOnUse">
   <stop stop-color="#e01b24" offset="0"/>
   <stop stop-color="#e01b24" offset=".49141"/>
   <stop stop-color="#fff" offset=".5035"/>
   <stop stop-color="#e01b24" offset="1"/>
  </linearGradient>
  <filter id="filter3658" x="-.13814" y="-.13814" width="1.2763" height="1.2763" color-interpolation-filters="sRGB">
   <feGaussianBlur stdDeviation="1.1293054"/>
  </filter>
  <filter id="filter3662" x="-.13814" y="-.13814" width="1.2763" height="1.2763" color-interpolation-filters="sRGB">
   <feGaussianBlur stdDeviation="1.1293054"/>
  </filter>
  <filter id="filter3666" x="-.11846" y="-.11846" width="1.2369" height="1.2369" color-interpolation-filters="sRGB">
   <feGaussianBlur stdDeviation="0.90344435"/>
  </filter>
  <linearGradient id="linearGradient363" x1="5.4447" x2="-22.104" y1="11.226" y2="11.226" gradientTransform="matrix(.13761 0 0 .26458 9.6127 7.0206)" gradientUnits="userSpaceOnUse" xlink:href="#linearGradient2156"/>
  <linearGradient id="linearGradient365" x1="5.4447" x2="-22.104" y1="11.226" y2="11.226" gradientTransform="matrix(.11009 0 0 .21166 13.077 3.3561)" gradientUnits="userSpaceOnUse" xlink:href="#linearGradient2156"/>
  <linearGradient id="linearGradient367" x1="5.4447" x2="-22.104" y1="11.226" y2="11.226" gradientTransform="matrix(.11009 0 0 .21166 5.6883 3.3562)" gradientUnits="userSpaceOnUse" xlink:href="#linearGradient2156"/>
 </defs>
 <g stroke-linecap="round" stroke-linejoin="round">
  <rect transform="matrix(.99138 0 0 1 .072989 .0019055)" x=".79375" y=".90545" width="15.346" height="15.346" rx="3.0526" ry="3.0526" filter="url(#filter1178)" opacity=".15" stroke-width="1.2489" style="mix-blend-mode:normal"/>
  <rect x=".926" y=".92604" width="15.081" height="15.081" rx="3" ry="3" fill="#ffbe6f" stroke-width="1.2274"/>
  <rect x=".01215" y=".0060174" width="16.924" height="16.927" fill="none" opacity=".15" stroke-width="1.052"/>
 </g>
 <g stroke-linecap="square">
  <path transform="matrix(.13761 0 0 .26458 9.725 7.2227)" d="m-8.3297 25-13.774-13.774 13.774-13.774 13.774 13.774z" filter="url(#filter3666)" opacity=".3079" stroke="#000" stroke-width="1.5488"/>
  <path d="m8.4664 13.635-1.8954-3.6443 1.8954-3.6443 1.8954 3.6443z" fill="url(#linearGradient363)" stroke="#a51d2d" stroke-width=".29553"/>
  <path transform="matrix(.11009 0 0 .21166 13.189 3.5582)" d="m-8.3297 25-13.774-13.774 13.774-13.774 13.774 13.774z" filter="url(#filter3662)" opacity=".3079" stroke="#000" stroke-width="1.5488"/>
  <path d="m12.16 8.6476-1.5164-2.9154 1.5164-2.9154 1.5164 2.9154z" fill="url(#linearGradient365)" stroke="#a51d2d" stroke-width=".23642"/>
  <path transform="matrix(.11009 0 0 .21166 5.8006 3.5583)" d="m-8.3297 25-13.774-13.774 13.774-13.774 13.774 13.774z" filter="url(#filter3658)" opacity=".3079" stroke="#000" stroke-width="1.5488"/>
  <path d="m4.7713 8.6477-1.5164-2.9154 1.5164-2.9154 1.5164 2.9154z" fill="url(#linearGradient367)" stroke="#a51d2d" stroke-width=".23642"/>
 </g>
</svg>
