<?xml version="1.0" encoding="UTF-8"?>
<svg width="64" height="64" version="1.1" viewBox="0 0 16.933 16.933" xmlns="http://www.w3.org/2000/svg">
 <defs>
  <filter id="filter1178" x="-.048" y="-.048" width="1.096" height="1.096" color-interpolation-filters="sRGB">
   <feGaussianBlur stdDeviation="0.30691955"/>
  </filter>
  <linearGradient id="linearGradient1340" x1="8.5011" x2="8.489" y1="16.007" y2=".79375" gradientUnits="userSpaceOnUse">
   <stop offset="0"/>
   <stop stop-color="#5e5c64" offset="1"/>
  </linearGradient>
  <linearGradient id="linearGradient6045" x1="171.64" x2="148.63" y1="24.864" y2="55.032" gradientTransform="matrix(.24696 0 0 .24696 -29.711 .31725)" gradientUnits="userSpaceOnUse">
   <stop stop-color="#33d17a" offset="0"/>
   <stop stop-color="#26a269" offset="1"/>
  </linearGradient>
  <linearGradient id="linearGradient6291" x1="46.326" x2="35.936" y1="3.6336" y2="12.266" gradientTransform="matrix(.93339 0 0 .93339 -29.711 .31725)" gradientUnits="userSpaceOnUse">
   <stop stop-color="#3584e4" offset="0"/>
   <stop stop-color="#1a5fb4" offset="1"/>
  </linearGradient>
 </defs>
 <g stroke-linecap="round" stroke-linejoin="round">
  <rect transform="matrix(.99138 0 0 1 .072989 .0019055)" x=".79375" y=".90545" width="15.346" height="15.346" rx="3.0526" ry="3.0526" filter="url(#filter1178)" opacity=".15" stroke-width="1.2489" style="mix-blend-mode:normal"/>
  <rect x=".92604" y=".92604" width="15.081" height="15.081" rx="3" ry="3" fill="url(#linearGradient1340)" stroke-width="1.2274"/>
  <rect x=".01215" y=".0060174" width="16.924" height="16.927" fill="none" opacity=".15" stroke-width="1.052"/>
 </g>
 <path d="m10.851 13.84c1.5937-0.62234 2.5735-1.9991 2.7768-3.902 0.05881-0.5504 0.0806-2.3925 0.0484-4.0935l-0.05854-3.0927-2.76 1.1996-0.04206 3.1616c-0.038272 2.8768-0.066153 3.2025-0.30952 3.6157-0.53781 0.91306-1.4958 1.2908-2.702 1.0655-0.73015-0.13641-1.181-0.50655-1.5251-1.252-0.20288-0.43959-0.2474-0.87448-0.24981-2.4405-0.0015867-1.0481-0.025174-1.9056-0.052363-1.9056-0.02718 0-0.644 0.26337-1.3707 0.58525l-1.3213 0.58526-0.0384 1.3803c-0.064096 2.3038 0.55628 3.7585 1.9973 4.6832 0.99705 0.63981 1.6904 0.79186 3.3902 0.74345 1.1195-0.031885 1.6492-0.1115 2.2171-0.33325z" fill="url(#linearGradient6291)" stroke-width=".13373"/>
 <path d="m10.852 4.3799-0.03617 2.7328c-0.03827 2.8768-0.0663 3.2025-0.30966 3.6157-0.10563 0.17934-0.2279 0.33759-0.36466 0.4751-0.9675 1.6535-2.6242 2.3161-4.2432 2.593 0.71388 0.33198 1.4264 0.414 2.7358 0.37671 1.1196-0.03188 1.649-0.11155 2.2168-0.33329 1.5937-0.62233 2.5735-1.9992 2.7768-3.9022 0.03702-0.34643 0.05925-1.2052 0.0627-2.2178-0.65496-1.6448-1.6916-2.7131-2.8385-3.3401z" fill="url(#linearGradient6045)" stroke-width=".24696"/>
</svg>
